<svg width="209" height="134" viewBox="0 0 209 134" fill="none" xmlns="http://www.w3.org/2000/svg">
<mask id="mask0_2_15535" style="mask-type:luminance" maskUnits="userSpaceOnUse" x="0" y="0" width="209" height="126">
<path d="M208.778 0.387466H0.77771V125.466H208.778V0.387466Z" fill="white"/>
</mask>
<g mask="url(#mask0_2_15535)">
<path d="M75.5611 50.3568C75.5611 54.4826 72.2163 57.8282 68.0913 57.8282C63.9664 57.8282 60.6215 54.4826 60.6215 50.3568C60.6215 46.231 63.9664 42.8855 68.0913 42.8855C72.2163 42.8855 75.5611 46.231 75.5611 50.3568Z" fill="#FAD2D0"/>
<path d="M72.43 50.3568C72.43 52.7511 70.4851 54.6964 68.0913 54.6964C65.6976 54.6964 63.7526 52.7511 63.7526 50.3568C63.7526 47.9626 65.6976 46.0172 68.0913 46.0172C70.4851 46.0172 72.43 47.9626 72.43 50.3568Z" fill="#EFBAB9"/>
<path d="M152.92 50.3568C152.92 54.4826 149.575 57.8282 145.45 57.8282C141.325 57.8282 137.98 54.4826 137.98 50.3568C137.98 46.231 141.325 42.8855 145.45 42.8855C149.575 42.8855 152.92 46.231 152.92 50.3568Z" fill="#FAD2D0"/>
<path d="M149.789 50.3568C149.789 52.7511 147.844 54.6964 145.45 54.6964C143.056 54.6964 141.111 52.7511 141.111 50.3568C141.111 47.9626 143.056 46.0172 145.45 46.0172C147.855 46.0172 149.789 47.9626 149.789 50.3568Z" fill="#EFBAB9"/>
<path d="M116.223 86.6019L107.674 86.6447L99.1139 86.6019L96.5599 91.7432C96.5599 91.7432 101.241 95.078 107.674 95.078C114.107 95.078 118.788 91.7432 118.788 91.7432L116.223 86.6019Z" fill="#EFBAB9"/>
<path d="M129.976 103.554C130.585 95.1742 132.455 91.8821 132.455 91.8821C126.289 87.7563 118.777 91.7539 118.777 91.7539C114.577 94.9711 107.663 95.0887 107.663 95.0887C107.663 95.0887 100.749 94.9604 96.5492 91.7539C96.5492 91.7539 89.0366 87.767 82.8706 91.8821C82.8706 91.8821 82.8172 96.6172 83.4156 104.997L60.1941 143.711C60.1941 143.711 72.9964 152.006 107.652 152.337C142.308 152.006 155.111 143.711 155.111 143.711L129.976 103.554Z" fill="#60B6EA"/>
<path d="M85.2963 94.6716C85.2963 94.6716 77.7197 89.5732 71.7887 95.5695C65.8578 101.566 59.7452 121.96 59.7452 121.96C59.7452 121.96 49.1122 130.767 52.8845 145.582C52.8845 145.582 46.633 147.933 45.7246 151.845C44.8163 155.757 45.6498 163.154 54.605 165.687C63.5495 168.22 64.1587 155.661 64.1587 155.661C64.1587 155.661 65.8257 158.835 69.6408 157.831C73.4451 156.826 66.6913 149.611 66.6913 149.611C66.6913 149.611 75.0588 136.464 75.2832 132.381C75.2832 132.392 95.2881 105.531 85.2963 94.6716Z" fill="#FAD2D0"/>
<path opacity="0.2" d="M50.3412 151.108C53.4296 149.034 56.4645 145.763 55.9302 143.049C55.3959 140.334 56.0264 130.992 61.9253 123.446C61.9253 123.446 72.4193 93.261 82.2615 93.261C79.5151 92.3631 75.3581 91.9676 71.7888 95.5697C65.8579 101.566 59.7452 121.96 59.7452 121.96C59.7452 121.96 49.1123 130.767 52.8846 145.582C52.8846 145.582 46.633 147.933 45.7247 151.845C45.0621 154.678 45.3293 159.338 48.9199 162.652C48.9199 162.662 47.2635 153.181 50.3412 151.108Z" fill="white"/>
<path d="M66.7769 103.49C66.7769 103.49 80.5089 101.374 86.3757 111.784C86.3757 111.784 95.4057 96.6279 83.5759 91.8607C71.0942 86.8157 67.4394 102.09 66.7769 103.49Z" fill="#7ACCF4"/>
<path d="M130.543 94.6716C130.543 94.6716 138.119 89.5732 144.05 95.5695C149.981 101.566 156.104 121.96 156.104 121.96C156.104 121.96 166.727 130.767 162.965 145.582C162.965 145.582 169.217 147.933 170.125 151.845C171.033 155.757 170.2 163.154 161.255 165.687C152.311 168.22 151.702 155.661 151.702 155.661C151.702 155.661 150.035 158.835 146.22 157.831C142.405 156.826 149.169 149.611 149.169 149.611C149.169 149.611 140.791 136.464 140.577 132.381C140.556 132.392 120.551 105.531 130.543 94.6716Z" fill="#FAD2D0"/>
<path opacity="0.2" d="M165.498 151.108C162.409 149.034 159.364 145.763 159.909 143.049C160.443 140.334 159.813 130.992 153.914 123.446C153.914 123.446 143.409 93.261 133.578 93.261C136.324 92.3631 140.492 91.9676 144.05 95.5697C149.981 101.566 156.104 121.96 156.104 121.96C156.104 121.96 166.727 130.767 162.965 145.582C162.965 145.582 169.217 147.933 170.125 151.845C170.788 154.678 170.52 159.338 166.93 162.652C166.919 162.662 168.575 153.181 165.498 151.108Z" fill="white"/>
<path d="M149.062 103.49C149.062 103.49 135.33 101.374 129.463 111.784C129.463 111.784 120.433 96.6279 132.263 91.8607C144.745 86.8157 148.4 102.09 149.062 103.49Z" fill="#7ACCF4"/>
<path d="M67.6639 53.1145C68.2196 73.0701 84.9972 88.9428 104.959 88.3869L110.698 88.2266C130.649 87.6708 146.519 70.8897 145.963 50.934L145.878 47.6098C145.322 27.6542 128.534 11.7815 108.582 12.3374L102.833 12.4977C82.8813 13.0535 67.012 29.8346 67.5677 49.7903L67.6639 53.1145Z" fill="#FAD2D0"/>
<path d="M93.4822 34.2384C93.4822 34.2384 88.7374 30.4225 83.2446 35.6813C83.2446 35.6813 90.49 34.2384 93.4822 34.2384Z" fill="#865131"/>
<path d="M121.139 33.0947C121.139 33.0947 126.311 29.8881 131.12 35.7882C131.12 35.7882 124.109 33.4474 121.139 33.0947Z" fill="#865131"/>
<path d="M84.9438 50.5706C85.1254 52.3128 86.8032 53.5634 88.6733 53.371C90.5434 53.1679 91.922 51.5967 91.7403 49.8544C91.5587 48.1122 89.8916 46.8616 88.0108 47.054C86.13 47.2571 84.7621 48.8283 84.9438 50.5706Z" fill="#3D3C3B"/>
<path d="M128.459 50.5706C128.277 52.3128 126.599 53.5634 124.729 53.371C122.848 53.1679 121.481 51.5967 121.662 49.8544C121.844 48.1122 123.522 46.8616 125.392 47.054C127.273 47.2571 128.64 48.8283 128.459 50.5706Z" fill="#3D3C3B"/>
<path opacity="0.3" d="M76.8435 62.4456C76.9397 65.5988 80.4021 68.0572 84.5804 67.9289C88.7588 67.8006 92.0716 65.1392 91.9754 61.986C91.8792 58.8329 88.4169 56.3745 84.2278 56.5028C80.0601 56.631 76.7473 59.2925 76.8435 62.4456Z" fill="#F49FC1"/>
<path opacity="0.3" d="M122.913 62.4456C123.009 65.5988 126.471 68.0572 130.649 67.9289C134.828 67.8006 138.141 65.1392 138.044 61.986C137.948 58.8329 134.486 56.3745 130.308 56.5028C126.129 56.631 122.816 59.2925 122.913 62.4456Z" fill="#F49FC1"/>
<path d="M108.625 17.0403C108.625 17.0403 110.837 17.6175 109.587 18.9002C108.336 20.1828 103.827 19.937 103.036 17.7458C102.459 16.1425 103.421 14.5071 105.975 13.1176C107.984 12.0274 106.092 11.2364 104.585 10.6165C102.469 9.7507 101.412 8.05121 106.22 6.44792C106.22 6.44792 108.913 5.16528 106.894 4.07504C106.894 4.07504 109.587 4.52396 108.913 6.25552C108.24 7.98708 105.355 8.24361 106.509 9.26972C107.663 10.2958 111.809 11.5143 109.971 13.1176C108.144 14.7316 104.682 16.0784 108.625 17.0403Z" fill="#865131"/>
<path d="M119.13 68.7305C118.446 65.7057 113.722 64.081 112.098 64.9147C110.474 65.7484 107.663 66.0156 107.663 66.0156C107.663 66.0156 104.842 65.7591 103.228 64.9147C101.604 64.081 96.8805 65.695 96.1965 68.7305C95.5233 71.7554 98.7292 77.7624 107.663 77.7624C116.597 77.7731 119.813 71.7661 119.13 68.7305Z" fill="#7ACCF4"/>
<path d="M116.073 73.8932C114.695 71.1889 112.461 70.8255 112.461 70.8255L112.162 72.2899C112.162 72.2899 113.754 72.8991 113.37 76.0843C112.996 79.2375 107.781 79.8253 107.674 79.836C107.567 79.8253 102.352 79.2268 101.978 76.0843C101.593 72.8991 103.185 72.2899 103.185 72.2899L102.886 70.8255C102.886 70.8255 100.653 71.1782 99.2742 73.8932C97.8957 76.6081 99.0391 84.3466 107.674 84.3573C107.684 84.3573 107.684 84.3573 107.684 84.3573C116.308 84.3466 117.452 76.5974 116.073 73.8932Z" fill="#32ADEA"/>
<path d="M112.793 71.3706C112.793 73.6046 110.976 75.4216 108.742 75.4216H106.445C104.211 75.4216 102.395 73.6046 102.395 71.3706C102.395 69.1367 104.211 67.3196 106.445 67.3196H108.742C110.976 67.3196 112.793 69.1367 112.793 71.3706Z" fill="#60B6EA"/>
</g>
</svg>
