<svg width="134" height="142" viewBox="0 0 134 142" fill="none" xmlns="http://www.w3.org/2000/svg">
<mask id="mask0_2_15674" style="mask-type:luminance" maskUnits="userSpaceOnUse" x="0" y="0" width="134" height="137">
<path d="M134 0H0V136.233H134V0Z" fill="white"/>
</mask>
<g mask="url(#mask0_2_15674)">
<path d="M33.1931 67.6571C33.1931 72.621 29.1667 76.6412 24.1951 76.6412C19.2235 76.6412 15.1971 72.621 15.1971 67.6571C15.1971 62.6931 19.2235 58.6729 24.1951 58.6729C29.1667 58.6729 33.1931 62.7054 33.1931 67.6571Z" fill="#FECE9A"/>
<path d="M29.4245 67.6571C29.4245 70.5374 27.0799 72.8784 24.1951 72.8784C21.3104 72.8784 18.9658 70.5374 18.9658 67.6571C18.9658 64.7767 21.3104 62.4357 24.1951 62.4357C27.0799 62.4357 29.4245 64.7767 29.4245 67.6571Z" fill="#F2B981"/>
<path d="M119.711 67.6571C119.711 72.621 115.685 76.6412 110.713 76.6412C105.742 76.6412 101.715 72.621 101.715 67.6571C101.715 62.6931 105.742 58.6729 110.713 58.6729C115.673 58.6729 119.711 62.7054 119.711 67.6571Z" fill="#FECE9A"/>
<path d="M115.93 67.6571C115.93 70.5374 113.598 72.8784 110.713 72.8784C107.829 72.8784 105.484 70.5374 105.484 67.6571C105.484 64.7767 107.829 62.4357 110.713 62.4357C113.598 62.4357 115.93 64.7767 115.93 67.6571Z" fill="#F2B981"/>
<path d="M110.48 70.807C110.48 90.0133 94.7428 105.726 75.507 105.726H58.9472C39.7114 105.726 23.9742 90.0133 23.9742 70.807V55.7803C23.9742 36.574 39.7114 20.8609 58.9472 20.8609H75.507C94.7428 20.8609 110.48 36.574 110.48 55.7803V70.807Z" fill="#FECE9A"/>
<path d="M71.6647 80.2692C71.6647 81.7523 69.7497 82.9657 67.3805 82.9657C65.0114 82.9657 63.0964 81.7523 63.0964 80.2692C63.0964 78.7739 65.0114 77.5728 67.3805 77.5728C69.7497 77.5728 71.6647 78.7862 71.6647 80.2692Z" fill="#F2B981"/>
<path d="M67.8224 87.6233H50.342C50.342 87.6233 51.8888 96.9874 67.8224 96.9874C83.7561 96.9874 85.3028 87.6233 85.3028 87.6233H67.8224Z" fill="#F1A58D"/>
<path d="M95.7371 70.1697C95.7371 72.6578 93.7116 74.6802 91.2074 74.6802C88.7032 74.6802 86.6777 72.6578 86.6777 70.1697C86.6777 67.6693 88.7032 65.647 91.2074 65.647C93.7239 65.647 95.7371 67.6693 95.7371 70.1697Z" fill="#352213"/>
<path d="M47.8501 70.1697C47.8501 72.6578 45.8247 74.6802 43.3327 74.6802C40.8285 74.6802 38.803 72.6578 38.803 70.1697C38.803 67.6693 40.8285 65.647 43.3327 65.647C45.8247 65.647 47.8501 67.6693 47.8501 70.1697Z" fill="#352213"/>
<path d="M78.048 35.4342C78.048 35.4342 94.7919 54.8488 111.266 58.5748L116.483 60.254C116.483 60.254 123.198 7.6727 67.7734 7.6727C12.963 7.6727 16.9894 55.1307 18.2538 61.3449C18.2538 61.3449 35.6482 58.9548 45.6774 46.2078C45.6774 46.2078 40.5093 55.7681 35.6482 58.9548C35.6359 58.9548 67.9452 54.8611 78.048 35.4342Z" fill="#9E663F"/>
<path d="M90.2131 108.668H77.9007V98.7156H58.0511V108.668H45.7387C36.4093 108.668 30.6152 114.441 30.6152 123.768L37.8087 165.061C37.8087 174.376 45.4441 182.012 54.7858 182.012H81.1414C90.4709 182.012 98.1185 174.389 98.1185 165.061L105.472 125.619C105.484 116.292 99.5425 108.668 90.2131 108.668Z" fill="#FECE9A"/>
<path d="M96.7559 121.942C96.8296 121.979 96.8664 121.967 96.8664 121.93C96.7928 121.942 96.7559 121.942 96.7559 121.942Z" fill="#FFC8A4"/>
<path d="M38.1892 116.868C38.2506 116.831 38.2874 116.807 38.2874 116.807C38.2015 116.807 38.177 116.831 38.1892 116.868Z" fill="#FFC8A4"/>
<path d="M89.231 108.668C89.231 108.668 82.2217 115.789 67.8224 116.059C53.4232 115.789 46.4139 108.668 46.4139 108.668C14.0064 108.668 15.725 150.39 15.725 150.39L29.449 155.869L31.6832 135.339C33.9173 145.058 33.2176 171.042 33.2176 171.042H67.4296H68.2521H102.464C102.464 171.042 101.764 145.058 103.999 135.339L106.233 155.869L119.957 150.39C119.92 150.39 121.774 108.668 89.231 108.668Z" fill="#A1CAD0"/>
<path d="M85.2537 111.536C81.7675 113.546 75.9857 115.9 67.8225 116.059C53.4232 115.789 46.4139 108.668 46.4139 108.668C45.0145 108.668 43.6887 108.766 42.412 108.925C44.6216 111.941 51.5696 118.951 68.5713 118.951C85.4993 118.951 93.8589 112.394 96.6946 109.538C94.6445 109.036 92.4104 108.754 89.9798 108.705C88.9855 109.465 87.402 110.507 85.2537 111.536Z" fill="#82B8BC"/>
</g>
</svg>
