<svg width="128" height="142" viewBox="0 0 128 142" fill="none" xmlns="http://www.w3.org/2000/svg">
<mask id="mask0_2_15479" style="mask-type:luminance" maskUnits="userSpaceOnUse" x="0" y="0" width="128" height="142">
<path d="M121.956 0.703415L0.130005 5.48972L5.47651 141.575L127.303 136.788L121.956 0.703415Z" fill="white"/>
</mask>
<g mask="url(#mask0_2_15479)">
<path d="M84.0457 141.03C88.5578 131.826 92.7772 133.001 90.9816 119.901C90.9816 119.901 75.5544 116.454 75.0119 100.864C75.0119 100.864 69.5197 103.972 64.7408 104.349C59.9616 104.717 54.2892 100.947 54.2892 100.947C54.2892 100.947 56.1989 117.715 42.8583 121.782C41.7466 135.516 45.0755 136.696 53.335 143.397C59.3826 148.314 79.8854 149.51 84.0457 141.03Z" fill="#FECE9A"/>
<path d="M80.092 113.504C77.397 110.627 75.2157 106.56 75.0119 100.864C75.0119 100.864 69.5197 103.972 64.7408 104.349C61.0492 104.635 56.8509 102.468 55.1098 101.455L54.2893 102.478C54.2856 102.639 54.2827 102.819 54.2698 102.999C55.921 105.036 67.8718 119.088 80.092 113.504Z" fill="#EEB881"/>
<path d="M101.48 55.9699C101.104 1.57268 60.7996 7.0892 60.7796 7.08998C60.7696 7.09038 20.1461 4.74335 24.0392 59.0023C24.0392 59.0023 24.8804 81.6868 31.2994 89.9412C39.7413 100.778 54.6393 106.037 64.6416 105.644C74.6439 105.251 89.2422 99.5739 96.649 87.3737C102.516 77.746 101.48 55.9699 101.48 55.9699Z" fill="#FDCC9B"/>
<path d="M100.671 60.6052C100.671 60.6052 102.885 55.8146 105.678 58.8873C108.47 61.9601 108.46 74.9405 99.9673 75.2941C99.9673 75.2941 100.752 63.6844 100.671 60.6052Z" fill="#FECE9A"/>
<path d="M100.897 65.34C100.897 65.34 102.435 60.666 104.237 62.967C106.039 65.2781 105.29 68.3899 102.824 70.5784C102.825 70.5883 103.645 62.1597 100.897 65.34Z" fill="#EEB881"/>
<path d="M24.6099 63.5935C24.6099 63.5935 22.0272 58.9913 19.4841 62.2737C16.941 65.5561 17.9698 78.4956 26.454 78.1823C26.464 78.1819 24.7708 66.6695 24.6099 63.5935Z" fill="#FECE9A"/>
<path d="M24.766 68.331C24.766 68.331 22.8663 63.7921 21.2507 66.2274C19.6355 68.6727 20.6257 71.7162 23.2558 73.7044C23.2562 73.7144 21.7677 65.3764 24.766 68.331Z" fill="#EEB881"/>
<path d="M101.776 58.1499C101.776 58.1499 106.303 29.7303 98.0928 28.0913C98.0928 28.0913 100.619 22.0775 96.1099 17.6111C92.288 13.8182 91.0955 9.70186 91.0955 9.70186C91.0955 9.70186 90.8527 11.6729 91.269 14.1185C91.269 14.1185 86.0509 8.9193 81.2968 7.63494C81.2968 7.63494 84.5496 10.6996 83.9878 12.1928C83.9878 12.1928 80.4959 5.845 70.22 4.87767C70.22 4.87767 74.3929 7.41581 74.131 8.64703C74.131 8.64703 71.5052 5.74788 66.9325 5.00682C66.9325 5.00682 68.4697 6.17738 68.409 6.67014C68.409 6.67014 65.0662 5.39039 62.1517 4.82437C62.1517 4.82437 64.2184 5.97412 63.7735 6.11169C63.4569 6.20419 58.4307 5.89127 57.7437 4.19693C57.7437 4.19693 57.4595 5.36899 58.4407 5.89088C58.4407 5.89088 54.2817 5.74403 53.0671 4.63086C53.0671 4.63086 53.2702 5.72373 54.6211 6.23109C54.6211 6.23109 49.419 5.51476 47.26 4.30859C47.26 4.30859 49.0438 5.89978 50.6365 6.44768C50.6365 6.44768 43.8438 7.27498 41.3143 6.57374C41.3143 6.57374 42.3936 8.06252 43.8072 8.12708C43.8072 8.12708 41.8609 8.51378 40.9047 8.12102C40.9047 8.12102 42.5687 10.2273 41.6308 10.5544C40.5051 10.9389 39.8032 9.88562 39.8592 9.27295C39.8592 9.27295 39.0875 10.7744 37.9537 10.6989C36.7495 10.6161 38.0376 8.50387 38.0376 8.50387C38.0376 8.50387 33.2114 9.71427 30.6011 13.0693C27.9908 16.4244 25.365 23.4629 25.365 23.4629C25.365 23.4629 21.0852 34.2492 21.4289 39.9401C22.1972 52.6197 23.9168 64.2912 25.8265 67.0484C25.8265 67.0484 26.2132 56.0047 31.1521 53.0785C32.3257 52.3819 29.3379 44.8534 32.8375 39.1717C37.127 32.1979 41.1853 32.8391 51.3616 35.0913C65.1212 38.1235 76.596 30.8874 80.5859 31.0609C96.6158 31.7622 92.9545 48.8691 94.9016 51.3045C99.2687 56.7473 98.9363 60.5132 101.628 64.0703L101.776 58.1499Z" fill="#2D2C2B"/>
<path d="M67.9926 76.3102C68.0558 77.9189 66.0388 79.3092 63.4808 79.4097C60.9227 79.5102 58.8029 78.2825 58.7397 76.6737C58.6765 75.065 60.6935 73.6747 63.2515 73.5742C65.8095 73.4737 67.9294 74.7014 67.9926 76.3102Z" fill="#EEB881"/>
<path d="M51.3503 87.5322C55.2749 95.7244 73.0851 95.1248 75.9711 86.3047C76.4185 84.9561 74.2677 84.4701 73.8299 85.8083C71.5164 92.8946 56.2571 92.7035 53.2156 86.358C52.5946 85.0714 50.7401 86.2651 51.3503 87.5322Z" fill="#F1A58D"/>
<path d="M88.5984 63.5714C88.7044 66.2693 86.602 68.5436 83.9041 68.6496C81.2062 68.7556 78.9319 66.6533 78.8259 63.9554C78.7199 61.2574 80.8222 58.9832 83.5202 58.8772C86.2181 58.7712 88.4924 60.8735 88.5984 63.5714Z" fill="#352213"/>
<path d="M46.7107 65.2171C46.8167 67.915 44.7143 70.1893 42.0164 70.2953C39.3185 70.4013 37.0442 68.299 36.9382 65.6011C36.8322 62.9031 38.9346 60.6288 41.6325 60.5229C44.3304 60.4169 46.6047 62.5192 46.7107 65.2171Z" fill="#352213"/>
<path d="M76.5958 55.3363C80.6029 51.6161 86.1198 51.9398 90.3286 55.137C91.36 55.9171 92.5174 54.3004 91.496 53.5199C86.6169 49.8186 79.9977 49.4582 75.3243 53.795C74.388 54.6724 75.6495 56.2141 76.5958 55.3363Z" fill="#2D2C2B"/>
<path d="M48.3576 56.4457C44.071 53.0514 38.5965 53.8069 34.6515 57.3244C33.6845 58.1831 32.3938 56.6626 33.3608 55.8039C37.9345 51.7313 44.5051 50.8526 49.5042 54.8094C50.5065 55.6107 49.3798 57.2462 48.3576 56.4457Z" fill="#2D2C2B"/>
<path d="M120.703 128.771C116.653 122.245 86.5583 117.613 86.5583 117.613C82.6935 123.68 70.2555 125.249 65.7937 125.544C61.3324 125.6 49.2023 124.815 44.8734 119.071C44.8734 119.071 15.2259 128.122 11.7014 134.955C10.4367 137.407 26.1076 164.122 26.1076 164.122C26.1076 164.122 28.7327 219.732 28.8437 245.227C28.8437 245.227 36.9424 254.206 69.148 253.461C69.148 253.461 70.2479 253.438 70.8075 253.416C71.3571 253.395 72.4654 253.331 72.4654 253.331C104.63 251.547 114.018 241.881 114.018 241.881C112.432 206.606 108.364 160.89 108.364 160.89C108.364 160.89 124.752 135.297 120.703 128.771Z" fill="#ECECEC"/>
<path d="M108.374 160.88C108.374 160.88 105.562 137.192 117.518 129.467C117.518 129.467 101.607 137.147 108.244 163.697L108.374 160.88Z" fill="#DCDEE0"/>
<path d="M26.1742 164.29C26.1742 164.29 27.1188 140.444 14.5936 133.681C14.5936 133.681 31.0479 140.09 26.5243 167.088L26.1742 164.29Z" fill="#DCDEE0"/>
<path d="M51.8128 114.335L66.3221 125.494L56.657 139.564L39.8734 120.188L51.8128 114.335Z" fill="#FBFFFF"/>
<path d="M79.9511 113.229L65.9424 125.509L76.6716 138.778L91.2074 118.261L79.9511 113.229Z" fill="#FBFFFF"/>
</g>
</svg>
