<svg width="175" height="136" viewBox="0 0 175 136" fill="none" xmlns="http://www.w3.org/2000/svg">
<mask id="mask0_2_15617" style="mask-type:luminance" maskUnits="userSpaceOnUse" x="0" y="0" width="175" height="136">
<path d="M175 -8.78658e-07L0 0L6.78641e-07 135.163L175 135.163L175 -8.78658e-07Z" fill="white"/>
</mask>
<g mask="url(#mask0_2_15617)">
<path d="M140.825 188.643C140.88 162.07 139.734 146.779 133.725 131.905C128.964 120.113 122.244 117.336 120.488 116.772C117.65 114.56 114.109 113.227 110.254 113.227L98.1168 113.227L98.1168 103.388L78.5471 103.388L78.5471 113.227L66.4003 113.227C62.2497 113.227 58.4504 114.773 55.52 117.29C52.9594 118.392 47.3575 121.844 43.2346 132.062C37.226 146.937 36.0797 162.227 36.1352 188.801C35.6545 193.151 35.3217 198.566 39.1672 200.324C42.0237 201.639 45.3146 200.833 44.0389 199.473C42.9943 198.362 42.2825 197.344 42.4027 194.762C42.5228 192.179 44.2422 192.716 44.2422 192.716C45.0835 192.957 44.4918 196.992 46.6919 196.807C48.513 196.65 47.3852 192.466 47.1541 191.207C46.9138 189.884 46.1743 188.68 46.1743 188.68C45.8322 160.2 48.2172 144.678 51.0921 136.246L58.5891 168.993C58.5891 178.212 66.123 185.756 75.3301 185.756L101.325 185.756C110.532 185.756 118.056 178.212 118.056 168.993L125.692 135.635C128.641 143.965 131.118 159.525 130.767 188.523C130.767 188.523 130.027 189.726 129.787 191.05C129.556 192.318 128.428 196.502 130.249 196.65C132.449 196.835 131.858 192.809 132.699 192.559C132.699 192.559 134.418 192.022 134.539 194.595C134.659 197.177 133.947 198.195 132.902 199.306C131.627 200.667 134.927 201.463 137.774 200.158C141.638 198.399 141.305 192.994 140.825 188.643Z" fill="#FFC8A4"/>
<path d="M73.5645 94.1505C71.4753 94.1505 69.5896 94.9465 68.1567 96.2516C67.0289 94.7429 65.3835 93.6414 63.4792 93.2156C64.0061 91.9939 64.3019 90.6518 64.3019 89.2356C64.3019 84.4041 60.8909 80.3778 56.352 79.4244C56.4629 78.8968 56.5184 78.36 56.5184 77.8047C56.5184 73.3433 52.9039 69.7336 48.4575 69.7336C44.0019 69.7336 40.3967 73.3526 40.3967 77.8047C40.3967 77.9342 40.4059 78.0638 40.4152 78.1841C36.9117 79.0634 34.3233 82.2289 34.3233 86.0053C34.3233 88.0231 35.0628 89.8558 36.2831 91.2627C34.6099 92.7436 33.5468 94.9002 33.5468 97.3067C33.5468 101.768 37.1613 105.378 41.6169 105.378C41.7648 105.378 41.9127 105.369 42.0514 105.359C43.1422 108.534 46.1373 110.82 49.6778 110.82C52.4972 110.82 54.9839 109.367 56.426 107.164C57.8403 108.404 59.6891 109.154 61.7228 109.154C63.8027 109.154 65.6978 108.358 67.1306 107.053C68.6004 109.015 70.9392 110.293 73.583 110.293C78.0387 110.293 81.6438 106.683 81.6438 102.222C81.6254 97.7695 78.0109 94.1505 73.5645 94.1505Z" fill="#9E663F"/>
<path d="M102.277 94.1505C104.366 94.1505 106.252 94.9465 107.684 96.2516C108.812 94.7429 110.458 93.6414 112.362 93.2156C111.835 91.9939 111.539 90.6518 111.539 89.2356C111.539 84.4041 114.95 80.3778 119.489 79.4244C119.378 78.8968 119.323 78.36 119.323 77.8047C119.323 73.3433 122.937 69.7336 127.393 69.7336C131.849 69.7336 135.454 73.3526 135.454 77.8047C135.454 77.9342 135.445 78.0638 135.435 78.1841C138.939 79.0634 141.527 82.2289 141.527 86.0053C141.527 88.0231 140.788 89.8558 139.567 91.2627C141.241 92.7436 142.304 94.9002 142.304 97.3067C142.304 101.768 138.689 105.378 134.243 105.378C134.095 105.378 133.947 105.369 133.808 105.359C132.727 108.534 129.722 110.82 126.182 110.82C123.362 110.82 120.876 109.367 119.443 107.164C118.029 108.404 116.18 109.154 114.146 109.154C112.057 109.154 110.171 108.358 108.738 107.053C107.268 109.015 104.93 110.293 102.295 110.293C97.8395 110.293 94.2343 106.683 94.2343 102.222C94.2158 97.7695 97.821 94.1505 102.277 94.1505Z" fill="#9E663F"/>
<path d="M47.3575 79.3967C52.0902 79.3967 55.9268 75.5552 55.9268 70.8165C55.9268 66.0778 52.0902 62.2363 47.3575 62.2363C42.6248 62.2363 38.7882 66.0778 38.7882 70.8165C38.7882 75.5552 42.6248 79.3967 47.3575 79.3967Z" fill="#FFC8A4"/>
<path d="M52.3308 70.8165C52.3308 73.5655 50.103 75.7961 47.3575 75.7961C44.612 75.7961 42.3842 73.5655 42.3842 70.8165C42.3842 68.0675 44.612 65.8368 47.3575 65.8368C50.103 65.8368 52.3308 68.0675 52.3308 70.8165Z" fill="#F9B995"/>
<path d="M129.732 79.3967C134.464 79.3967 138.301 75.5552 138.301 70.8165C138.301 66.0778 134.464 62.2363 129.732 62.2363C124.999 62.2363 121.162 66.0778 121.162 70.8165C121.162 75.5552 124.999 79.3967 129.732 79.3967Z" fill="#FFC8A4"/>
<path d="M134.705 70.8165C134.705 73.5655 132.477 75.7961 129.732 75.7961C126.986 75.7961 124.758 73.5655 124.758 70.8165C124.758 68.0675 126.986 65.8368 129.732 65.8368C132.477 65.8368 134.705 68.0675 134.705 70.8165Z" fill="#F9B995"/>
<path d="M129.519 73.8246C129.519 92.1605 114.534 107.173 96.2126 107.173L80.4421 107.173C62.1296 107.173 47.1449 92.1605 47.1449 73.8246L47.1449 59.4781C47.1449 41.1422 62.1296 26.1385 80.4514 26.1385L96.2218 26.1385C114.534 26.1385 129.528 41.1422 129.528 59.4781L129.528 73.8246L129.519 73.8246Z" fill="#FFC8A4"/>
<path d="M93.0788 80.2297C93.0788 81.8217 91.0266 83.1175 88.5029 83.1175C85.97 83.1175 83.9178 81.8217 83.9178 80.2297C83.9178 78.6284 85.97 77.3326 88.5029 77.3326C91.0266 77.3326 93.0788 78.6284 93.0788 80.2297Z" fill="#F9B58F"/>
<path d="M88.8912 85.6166L72.2518 85.6166C72.2518 85.6166 73.7216 98.547 88.8912 98.547C104.061 98.547 105.531 85.6166 105.531 85.6166L88.8912 85.6166Z" fill="#F2886B"/>
<path d="M105.355 70.1593C105.614 65.3093 112.602 65.3093 112.87 70.1593C112.944 71.557 115.117 71.557 115.043 70.1593C114.858 66.8087 112.473 64.4114 109.117 64.2263C105.771 64.0412 103.358 67.0771 103.192 70.1593C103.109 71.557 105.272 71.5477 105.355 70.1593Z" fill="#352213"/>
<path opacity="0.4" d="M121.162 77.8787C121.162 80.2574 118.352 82.1827 114.886 82.1827C111.419 82.1827 108.609 80.2574 108.609 77.8787C108.609 75.4999 111.419 73.5747 114.886 73.5747C118.352 73.5747 121.162 75.4999 121.162 77.8787Z" fill="#F47D89"/>
<path opacity="0.4" d="M69.0626 77.8787C69.0626 80.2574 66.2524 82.1827 62.7859 82.1827C59.3194 82.1827 56.5092 80.2574 56.5092 77.8787C56.5092 75.4999 59.3194 73.5747 62.7859 73.5747C66.2617 73.5747 69.0626 75.4999 69.0626 77.8787Z" fill="#F47D89"/>
<path d="M63.8767 70.1593C64.1355 65.3093 71.1241 65.3093 71.3921 70.1593C71.4661 71.557 73.6385 71.557 73.5645 70.1593C73.3796 66.8087 70.9946 64.4114 67.639 64.2263C64.2927 64.0412 61.88 67.0771 61.7136 70.1593C61.6304 71.557 63.8027 71.5477 63.8767 70.1593Z" fill="#352213"/>
<path d="M142.304 50.8053C142.304 47.2141 140.344 44.0949 137.45 42.4288C137.543 41.7901 137.617 41.1515 137.617 40.4851C137.617 34.802 133.938 29.9982 128.835 28.2859C127.679 22.0474 122.225 17.3269 115.662 17.3269C114.839 17.3269 114.035 17.4102 113.259 17.5583C111.077 13.097 106.51 10.0241 101.223 10.0241C100.086 10.0241 98.995 10.1814 97.9412 10.4498C95.5562 8.26547 92.3947 6.92337 88.9005 6.92337C85.6188 6.92337 82.6145 8.10812 80.285 10.0704C78.1773 8.12663 75.3671 6.92337 72.2611 6.92337C66.8533 6.92337 62.2959 10.5609 60.8816 15.5128C60.2715 15.4202 59.6429 15.3462 59.0051 15.3462C52.451 15.3369 47.1449 20.659 47.1449 27.2122C41.811 27.2122 37.494 31.5439 37.494 36.8753C37.494 39.541 38.5756 41.9475 40.3135 43.6969C37.8268 45.0945 36.1444 47.7509 36.1444 50.8053C36.1444 52.7768 36.8377 54.5817 38.0025 55.9886C36.1536 57.4788 34.9704 59.765 34.9704 62.3289C34.9704 66.8272 38.6126 70.474 43.1052 70.474C47.5978 70.474 51.24 66.8272 51.24 62.3289C51.24 61.8383 51.1938 61.3663 51.1106 60.9035C51.1568 60.9035 51.1938 60.9127 51.24 60.9127C55.7326 60.9127 59.3748 57.2659 59.3748 52.7676C59.3748 52.675 59.3656 52.5917 59.3656 52.4992C59.6614 52.5362 59.9664 52.5547 60.2715 52.5547C64.607 52.5547 68.1475 49.1486 68.3878 44.8631C69.192 45.1315 70.0425 45.2703 70.9299 45.2703C74.2393 45.2703 77.0773 43.2896 78.3437 40.4573C78.584 40.4758 78.8151 40.4943 79.0555 40.4943C80.2387 40.4943 81.3665 40.2352 82.3834 39.7816C83.5481 42.8453 86.5062 45.0297 89.982 45.0297C91.1468 45.0297 92.2468 44.7798 93.2544 44.3355C94.0217 48.0286 97.2941 50.8146 101.214 50.8146C102.582 50.8146 103.867 50.4721 104.994 49.8798C105.586 53.795 108.951 56.7939 113.028 56.7939C114.673 56.7939 116.208 56.2941 117.483 55.4518C117.178 56.4051 117.003 57.4233 117.003 58.4784C117.003 63.9116 121.403 68.3174 126.82 68.3174C131.849 68.3174 135.99 64.5318 136.572 59.6447C139.946 58.1175 142.304 54.7391 142.304 50.8053Z" fill="#9E663F"/>
<path d="M98.1169 113.227L88.3274 131.109L78.5378 113.227C78.5378 113.227 44.1221 103.73 38.779 134.589L49.6593 141.272L51.24 137.634L57.5722 164.569L88.3181 164.569L119.064 164.569L125.396 137.634L126.977 141.272L137.857 134.589C132.533 103.73 98.1169 113.227 98.1169 113.227Z" fill="#F8E98E"/>
<path d="M71.2997 168.642C71.6233 171.391 69.6635 173.88 66.9273 174.204C64.1818 174.528 61.6951 172.566 61.3716 169.826L55.7419 114.587C55.4184 111.838 57.3781 109.349 60.1144 109.025C62.8599 108.701 65.3465 110.654 65.6793 113.403L71.2997 168.642Z" fill="#AE5EDD"/>
<path d="M63.5994 114.578C63.5994 116.096 62.3699 117.336 60.8446 117.336C59.3286 117.336 58.0899 116.105 58.0899 114.578C58.0899 113.06 59.3194 111.82 60.8446 111.82C62.3699 111.82 63.5994 113.06 63.5994 114.578Z" fill="#CC8FF7"/>
<path d="M103.7 168.642C103.367 171.391 105.327 173.88 108.073 174.204C110.818 174.528 113.305 172.566 113.628 169.826L119.258 114.587C119.591 111.838 117.622 109.349 114.886 109.025C112.14 108.701 109.653 110.654 109.321 113.403L103.7 168.642Z" fill="#AE5EDD"/>
<path d="M111.401 114.578C111.401 116.096 112.63 117.336 114.155 117.336C115.671 117.336 116.91 116.105 116.91 114.578C116.91 113.06 115.681 111.82 114.155 111.82C112.63 111.82 111.401 113.06 111.401 114.578Z" fill="#CC8FF7"/>
</g>
</svg>
