<svg width="152" height="141" viewBox="0 0 152 141" fill="none" xmlns="http://www.w3.org/2000/svg">
<mask id="mask0_2_15379" style="mask-type:luminance" maskUnits="userSpaceOnUse" x="0" y="0" width="152" height="141">
<path d="M151.432 0.351547H0.681915V140.882H151.432V0.351547Z" fill="white"/>
</mask>
<g mask="url(#mask0_2_15379)">
<path d="M85.6519 90.2315C88.0619 90.6415 90.0819 91.9415 91.4819 93.7215C93.0819 92.2015 95.1919 91.2615 97.4719 91.1515C97.1019 89.6415 97.0319 88.0315 97.3119 86.4015C98.2719 80.8415 102.992 76.8715 108.422 76.6715C108.402 76.0415 108.442 75.4115 108.552 74.7715C109.432 69.6315 114.312 66.1815 119.452 67.0615C124.592 67.9415 128.042 72.8215 127.152 77.9615C127.122 78.1115 127.082 78.2515 127.052 78.4015C130.912 80.1115 133.282 84.2715 132.532 88.6215C132.132 90.9415 130.912 92.9115 129.232 94.3015C130.862 96.3415 131.662 99.0315 131.182 101.812C130.302 106.952 125.422 110.402 120.282 109.512C120.112 109.482 119.942 109.442 119.782 109.402C117.902 112.842 113.992 114.882 109.902 114.182C106.642 113.622 104.072 111.452 102.842 108.632C100.962 109.782 98.6819 110.282 96.3419 109.882C93.9419 109.472 91.9119 108.172 90.5119 106.392C88.4319 108.362 85.4819 109.372 82.4319 108.842C77.2919 107.962 73.8419 103.082 74.7219 97.9415C75.6319 92.7915 80.5119 89.3415 85.6519 90.2315Z" fill="black"/>
<path d="M76.7119 88.2715C74.3019 87.8715 71.9619 88.4415 70.0619 89.6615C69.0419 87.7015 67.3519 86.1215 65.2419 85.2715C66.0819 83.9615 66.6819 82.4715 66.9519 80.8315C67.8719 75.2615 64.7019 69.9715 59.6319 68.0015C59.8619 67.4215 60.0219 66.8015 60.1319 66.1615C60.9819 61.0215 57.4919 56.1615 52.3519 55.3115C47.2119 54.4615 42.3519 57.9515 41.5119 63.0915C41.4919 63.2415 41.4819 63.3915 41.4619 63.5315C37.2519 63.8815 33.6519 67.0415 32.9419 71.3915C32.5619 73.7115 33.0719 75.9715 34.2019 77.8315C31.9919 79.2215 30.3619 81.5115 29.9019 84.2915C29.0619 89.4315 32.5419 94.2915 37.6819 95.1315C37.8519 95.1615 38.0219 95.1715 38.1919 95.1915C38.8419 99.0615 41.8719 102.272 45.9619 102.942C49.2219 103.482 52.3619 102.272 54.4419 100.012C55.8419 101.712 57.8319 102.932 60.1819 103.312C62.5919 103.712 64.9319 103.152 66.8319 101.922C68.1619 104.462 70.6119 106.382 73.6619 106.882C78.8019 107.732 83.6619 104.252 84.5119 99.1015C85.3319 93.9715 81.8519 89.1115 76.7119 88.2715Z" fill="black"/>
<path d="M97.3819 134.552C102.012 125.972 107.452 125.912 106.242 113.392C106.242 113.392 90.2219 110.882 90.3019 96.0615C90.3019 96.0615 84.9619 98.8115 80.4119 98.9815C75.8619 99.1615 70.6119 95.3615 70.6119 95.3615C70.6119 95.3615 69.2919 111.452 57.4719 114.412C55.9019 127.412 61.0619 140.482 68.6619 147.162C74.2019 152.052 93.1219 142.462 97.3819 134.552Z" fill="#FECE9A"/>
<path d="M95.4319 108.162C92.9719 105.322 90.2819 101.482 90.3019 96.0615C90.3019 96.0615 84.9619 98.8115 80.4119 98.9815C76.9019 99.1115 72.9819 96.9015 71.3719 95.8715L70.5519 96.8115C70.5419 96.9715 70.5319 97.1315 70.5219 97.3115C72.0019 99.3115 83.6119 113.002 95.4319 108.162Z" fill="#EEB881"/>
<path d="M120.712 62.5215C132.162 12.0815 93.6519 8.45155 93.6419 8.45155C93.6319 8.45155 56.5319 -2.52845 48.3719 48.5415C48.3719 48.5415 44.2219 69.7215 48.3919 78.7515C53.8619 90.6215 66.5119 98.7115 75.8519 100.512C85.1919 102.312 99.9419 100.232 109.442 90.5415C116.952 82.9115 120.712 62.5215 120.712 62.5215Z" fill="#FECE9A"/>
<path d="M118.962 66.6415C118.962 66.6415 122.052 62.6815 123.962 66.1415C125.882 69.6015 123.052 81.6115 115.122 80.0915C115.132 80.0915 118.372 69.5115 118.962 66.6415Z" fill="#FECE9A"/>
<path d="M118.142 71.0815C118.142 71.0815 120.582 67.0815 121.742 69.6115C122.902 72.1415 121.542 74.8615 118.782 76.3515C118.782 76.3515 121.372 68.7315 118.142 71.0815Z" fill="#EEB881"/>
<path d="M47.9019 52.9215C47.9019 52.9215 46.5119 48.1015 43.4419 50.5915C40.3719 53.0815 38.8319 65.3415 46.7619 66.8915C46.7619 66.8815 47.3819 55.8015 47.9019 52.9215Z" fill="#FECE9A"/>
<path d="M47.0119 57.3415C47.0119 57.3415 46.2419 52.7215 44.2119 54.6415C42.1919 56.5515 42.4419 59.5815 44.4519 62.0015C44.4519 61.9915 44.8919 53.9515 47.0119 57.3415Z" fill="#EEB881"/>
<path opacity="0.2" d="M111.292 78.2015C110.852 80.4415 107.382 81.6415 103.552 80.8815C99.7219 80.1315 96.9719 77.7015 97.4119 75.4615C97.8519 73.2215 101.312 72.0315 105.152 72.7815C108.982 73.5415 111.732 75.9615 111.292 78.2015Z" fill="#ED7BB0"/>
<path opacity="0.2" d="M65.0019 69.2515C64.5619 71.4915 61.0919 72.6915 57.2619 71.9415C53.4319 71.1815 50.6819 68.7615 51.1219 66.5215C51.5619 64.2915 55.0219 63.0915 58.8619 63.8415C62.6919 64.6015 65.4419 67.0215 65.0019 69.2515Z" fill="#ED7BB0"/>
<path d="M85.2619 74.9715C84.9719 76.4515 82.8419 77.2815 80.5119 76.8215C78.1719 76.3715 76.5019 74.8015 76.7919 73.3315C77.0819 71.8515 79.2019 71.0215 81.5519 71.4715C83.8819 71.9315 85.5519 73.4915 85.2619 74.9715Z" fill="#EEB881"/>
<path d="M106.682 67.7815C106.202 70.2515 103.812 71.8715 101.332 71.3915C98.8619 70.9115 97.2419 68.5215 97.7219 66.0515C98.2019 63.5815 100.592 61.9615 103.062 62.4315C105.542 62.9215 107.162 65.3115 106.682 67.7815Z" fill="#352213"/>
<path d="M68.3019 60.3715C67.8219 62.8415 65.4319 64.4615 62.9519 63.9815C60.4819 63.5015 58.8619 61.1115 59.3419 58.6315C59.8219 56.1615 62.2119 54.5415 64.6819 55.0215C67.1619 55.5015 68.7819 57.8915 68.3019 60.3715Z" fill="#352213"/>
<path d="M45.7719 161.132L47.7719 170.872H114.262L114.832 168.112C117.442 166.272 120.692 162.792 121.002 156.722C121.002 156.722 137.382 152.782 143.392 144.902C141.492 126.672 129.772 123.262 129.772 123.262C123.022 119.062 99.2819 110.902 99.2819 110.902C99.2819 123.012 81.0119 121.942 81.0119 121.942C81.0119 121.942 63.2019 122.362 63.2019 111.442C63.2019 111.442 38.9919 119.062 32.2419 123.262C32.2419 123.262 24.7219 133.772 22.8319 152.002C22.8519 152.002 30.2719 161.502 45.7719 161.132Z" fill="#EDA2BD"/>
<path d="M61.9019 111.432C61.9919 120.082 72.5219 122.792 79.2919 123.212C87.7719 123.732 100.532 121.632 100.602 110.892C100.612 109.192 97.9819 109.202 97.9719 110.892C97.9119 119.462 87.5919 120.502 81.0219 120.612C75.5619 120.702 64.6119 118.992 64.5319 111.432C64.5119 109.742 61.8819 109.742 61.9019 111.432Z" fill="#E276A2"/>
<path d="M80.9819 80.3215L70.4219 78.8615C70.4219 78.8615 69.7919 90.2815 79.4219 91.6115C89.0419 92.9415 91.5419 81.7815 91.5419 81.7815L80.9819 80.3215Z" fill="#F2886B"/>
<path d="M132.042 51.9515C132.762 50.9915 133.202 49.7915 133.202 48.4915C133.202 46.7515 132.422 45.1915 131.202 44.1315C132.422 43.0715 133.202 41.5115 133.202 39.7715C133.202 38.1415 132.522 36.6715 131.432 35.6215C132.692 34.0815 133.452 32.1215 133.452 29.9815C133.452 25.4515 130.062 21.7215 125.682 21.1615C125.822 20.5915 125.892 19.9915 125.892 19.3715C125.892 15.0915 122.422 11.6215 118.142 11.6215C117.432 11.6215 116.752 11.7215 116.102 11.9015C116.102 11.8315 116.112 11.7715 116.112 11.7015C116.112 8.51154 113.532 5.93154 110.342 5.93154C109.492 5.93154 108.692 6.12154 107.962 6.45154C107.962 6.39154 107.972 6.32154 107.972 6.26154C107.972 3.07154 105.392 0.491541 102.202 0.491541C100.792 0.491541 99.5019 1.00154 98.4919 1.84154C97.2319 -0.728459 94.6019 -2.49846 91.5419 -2.49846C88.9419 -2.49846 86.6519 -1.21846 85.2419 0.741541C83.6819 -0.608459 81.6419 -1.43846 79.4119 -1.43846C76.1919 -1.43846 73.3819 0.281541 71.8119 2.84154C70.8519 2.12154 69.6619 1.70154 68.3719 1.70154C65.3119 1.70154 62.8119 4.09154 62.6219 7.10154C61.8619 6.85154 61.0519 6.71154 60.2119 6.71154C55.9319 6.71154 52.4619 10.1815 52.4619 14.4615C48.1819 14.4615 44.7119 17.9315 44.7119 22.2115C44.7119 23.1215 44.8819 23.9915 45.1619 24.8015C40.8919 25.4615 37.6319 29.1415 37.6319 33.5915C37.6319 36.1315 38.7019 38.4115 40.4019 40.0315C38.0619 40.7715 36.3719 42.9515 36.3719 45.5315C36.3719 48.7215 38.9519 51.3015 42.1419 51.3015C42.2719 51.3015 42.3919 51.2915 42.5219 51.2815C42.4919 51.4915 42.4519 51.6815 42.4119 51.8915C42.4119 51.8915 42.9819 51.4015 43.7819 51.0615C43.9919 51.0015 44.1919 50.9315 44.3919 50.8415C44.8119 50.7315 45.2519 50.6915 45.6919 50.7915C46.5219 52.9615 48.6119 54.4915 51.0719 54.4915C54.2619 54.4915 56.8419 51.9115 56.8419 48.7215C56.8419 48.0315 56.7119 47.3715 56.4919 46.7615C56.6119 46.7715 56.7219 46.7815 56.8419 46.7815C60.0319 46.7815 62.6119 44.2015 62.6119 41.0115C62.6119 39.7015 62.1719 38.4915 61.4219 37.5215C61.5219 37.5215 61.6119 37.5315 61.7119 37.5315C65.3719 37.5315 68.3419 34.5715 68.5019 30.8515C69.3519 31.8515 70.5419 32.5615 71.9019 32.7915C71.3219 33.6915 70.9819 34.7515 70.9819 35.9015C70.9819 39.0915 73.5619 41.6715 76.7519 41.6715C77.7119 41.6715 78.6119 41.4315 79.4119 41.0215C79.2419 41.5615 79.1619 42.1315 79.1619 42.7215C79.1619 45.9115 81.7419 48.4915 84.9319 48.4915C84.9919 48.4915 85.0519 48.4815 85.1119 48.4815C85.0019 48.9315 84.9319 49.3915 84.9319 49.8715C84.9319 53.0615 87.5119 55.6415 90.7019 55.6415C91.0319 55.6415 91.3519 55.6115 91.6719 55.5515C92.0619 58.3615 94.4619 60.5215 97.3819 60.5215C98.6419 60.5215 99.8019 60.1115 100.742 59.4315C101.182 62.1815 103.552 64.2915 106.432 64.2915C107.602 64.2915 108.692 63.9415 109.602 63.3415C110.292 65.7615 112.512 67.5315 115.142 67.5315C116.762 67.5315 118.232 66.8615 119.282 65.7815C119.472 65.8215 119.662 65.8615 119.852 65.9015C119.852 65.9015 120.122 65.6815 120.562 65.4915C122.052 66.6115 123.902 67.2915 125.912 67.2915C130.832 67.2915 134.812 63.3015 134.812 58.3915C134.802 55.8515 133.732 53.5715 132.042 51.9515Z" fill="black"/>
</g>
</svg>
