<svg width="124" height="124" viewBox="0 0 124 124" fill="none" xmlns="http://www.w3.org/2000/svg">
<mask id="mask0_2_15429" style="mask-type:luminance" maskUnits="userSpaceOnUse" x="0" y="0" width="124" height="124">
<path d="M123.87 0.887131L0.621185 0.887131L0.621185 123.893H123.87V0.887131Z" fill="white"/>
</mask>
<g mask="url(#mask0_2_15429)">
<path d="M101.693 66.4127L60.7573 65.1843V65.1733H60.5692H60.3811V65.1843L19.4345 66.4127C19.4345 66.4127 12.4404 90.04 25.0895 90.04C36.798 90.04 57.3599 90.04 60.37 90.04C60.6135 90.04 60.7573 90.04 60.7573 90.04C63.7675 90.04 84.3293 90.04 96.0378 90.04C108.687 90.04 101.693 66.4127 101.693 66.4127Z" fill="#9E663F"/>
<path d="M29.6269 62.9046C29.6269 67.3091 26.0634 70.8726 21.6589 70.8726C17.2543 70.8726 13.6909 67.3091 13.6909 62.9046C13.6909 58.5001 17.2543 54.9366 21.6589 54.9366C26.0634 54.9366 29.6269 58.5111 29.6269 62.9046Z" fill="#FECE9A"/>
<path d="M26.2847 62.9046C26.2847 65.461 24.2153 67.5305 21.6589 67.5305C19.1025 67.5305 17.033 65.461 17.033 62.9046C17.033 60.3482 19.1025 58.2787 21.6589 58.2787C24.2153 58.2787 26.2847 60.3482 26.2847 62.9046Z" fill="#F2B981"/>
<path d="M106.252 62.9046C106.252 67.3091 102.689 70.8726 98.2843 70.8726C93.8798 70.8726 90.3163 67.3091 90.3163 62.9046C90.3163 58.5001 93.8798 54.9366 98.2843 54.9366C102.689 54.9366 106.252 58.5111 106.252 62.9046Z" fill="#FECE9A"/>
<path d="M102.91 62.9046C102.91 65.461 100.841 67.5305 98.2843 67.5305C95.7279 67.5305 93.6474 65.461 93.6474 62.9046C93.6474 60.3482 95.7169 58.2787 98.2843 58.2787C100.841 58.2787 102.91 60.3482 102.91 62.9046Z" fill="#F2B981"/>
<path d="M98.0851 65.7045C98.0851 82.736 84.1411 96.68 67.1096 96.68H52.4352C35.4036 96.68 21.4597 82.736 21.4597 65.7045V52.3692C21.4597 35.3376 35.4036 21.3936 52.4352 21.3936H67.1096C84.1411 21.3936 98.0851 35.3376 98.0851 52.3692V65.7045Z" fill="#FECE9A"/>
<path d="M48.5065 32.4049L45.0206 44.6668L26.8823 44.711L22.0241 55.003L17.7191 55.9769C17.7191 55.9769 10.714 32.7037 22.1458 19.9992C32.305 8.70018 51.0297 8.41245 59.9937 10.2716C59.9937 10.2716 81.5183 6.24339 93.2822 16.2587C111.907 32.1172 104.935 51.7494 103.154 56.6187L97.8527 55.3461C97.8527 55.3461 93.8909 45.8288 93.3597 44.7774H77.4237L73.8602 32.8697L72.0453 44.7774L49.9563 44.7885L48.5065 32.4049Z" fill="#9E663F"/>
<path d="M63.7453 72.4108C63.7453 73.7499 62.0189 74.8455 59.883 74.8455C57.7472 74.8455 56.0208 73.7499 56.0208 72.4108C56.0208 71.0607 57.7472 69.9762 59.883 69.9762C62.0189 69.9762 63.7453 71.0718 63.7453 72.4108Z" fill="#F2B981"/>
<path d="M60.2704 79.0508H44.5115C44.5115 79.0508 45.9059 87.5057 60.2704 87.5057C74.6349 87.5057 76.0293 79.0508 76.0293 79.0508H60.2704Z" fill="#F1A58D"/>
<path d="M85.447 63.2919C85.447 65.5495 83.621 67.3755 81.3634 67.3755C79.1058 67.3755 77.2798 65.5495 77.2798 63.2919C77.2798 61.0343 79.1058 59.2083 81.3634 59.2083C83.621 59.2083 85.447 61.0454 85.447 63.2919Z" fill="#352213"/>
<path d="M42.265 63.2919C42.265 65.5495 40.439 67.3755 38.1814 67.3755C35.9238 67.3755 34.0978 65.5495 34.0978 63.2919C34.0978 61.0343 35.9238 59.2083 38.1814 59.2083C40.439 59.2083 42.265 61.0454 42.265 63.2919Z" fill="#352213"/>
<path d="M80.456 100.365H69.3561V91.3791H51.4613V100.365H40.3726C31.9619 100.365 26.7385 105.578 26.7385 113.999L33.2235 151.283C33.2235 159.693 40.107 166.588 48.5287 166.588H72.2888C80.6994 166.588 87.5829 159.705 87.5829 151.283L94.2118 115.67C94.2229 107.249 88.8666 100.365 80.456 100.365Z" fill="#FECE9A"/>
<path d="M86.3545 112.35C86.4197 112.383 86.4523 112.372 86.4523 112.339C86.3979 112.339 86.3545 112.35 86.3545 112.35Z" fill="#FFC8A4"/>
<path d="M33.5555 107.768C33.6103 107.735 33.6431 107.724 33.6431 107.724C33.5664 107.703 33.5445 107.735 33.5555 107.768Z" fill="#FFC8A4"/>
<path d="M79.5706 100.365C79.5706 100.365 73.2516 106.795 60.2704 107.049C47.2892 106.806 40.9702 100.365 40.9702 100.365C11.7542 100.365 13.3036 138.036 13.3036 138.036L25.6761 142.983L27.6902 124.446C29.6932 133.222 29.0735 156.683 29.0735 156.683H59.9163H60.6577H91.4783C91.4783 156.683 90.8475 133.222 92.8616 124.446L94.8758 142.983L107.248 138.036C107.237 138.025 108.908 100.365 79.5706 100.365Z" fill="#EF8BC7"/>
<path d="M75.985 102.955C72.8421 104.77 67.6297 106.895 60.2704 107.038C47.2892 106.795 40.9702 100.354 40.9702 100.354C39.7086 100.354 38.5134 100.443 37.3624 100.587C39.3544 103.309 45.6181 109.639 60.9454 109.639C76.2174 109.639 83.7427 103.718 86.2991 101.14C84.451 100.686 82.4369 100.432 80.2457 100.387C79.3493 101.073 77.9217 102.025 75.985 102.955Z" fill="#E046AA"/>
</g>
</svg>
